HIERARCHY
ROOT Hips
{
	OFFSET	0.00	0.00	0.00
	CHANNELS 6 Xposition Yposition Zposition Zrotation Xrotation Yrotation
	JOINT LeftUpLeg
	{
		OFFSET	 0.126116	-0.065224	 0.014019
		CHANNELS 3 Zrotation Xrotation Yrotation
		JOINT LeftLeg
		{
			OFFSET	 0.000000	 0.569914	 0.000000
			CHANNELS 3 Zrotation Xrotation Yrotation
			JOINT LeftFoot
			{
				OFFSET	 0.000000	 0.544423	 0.000000
				CHANNELS 3 Zrotation Xrotation Yrotation
				JOINT LeftToeBase
				{
					OFFSET	 0.000000	 0.207117	 0.000000
					CHANNELS 3 Zrotation Xrotation Yrotation
					End Site
					{
						OFFSET	 0.000000	 0.207117	 0.000000
					}
				}
			}
		}
	}
	JOINT RightUpLeg
	{
		OFFSET	-0.124023	-0.065224	 0.008373
		CHANNELS 3 Zrotation Xrotation Yrotation
		JOINT RightLeg
		{
			OFFSET	 0.000000	 0.570047	 0.000000
			CHANNELS 3 Zrotation Xrotation Yrotation
			JOINT RightFoot
			{
				OFFSET	 0.000000	 0.544354	 0.000000
				CHANNELS 3 Zrotation Xrotation Yrotation
				JOINT RightToeBase
				{
					OFFSET	 0.000000	 0.207540	 0.000000
					CHANNELS 3 Zrotation Xrotation Yrotation
					End Site
					{
						OFFSET	 0.000000	 0.207540	 0.000000
					}
				}
			}
		}
	}
	JOINT Spine
	{
		OFFSET	 0.000184	 0.117403	 0.007763
		CHANNELS 3 Zrotation Xrotation Yrotation
		JOINT Spine1
		{
			OFFSET	 0.000000	 0.137269	 0.000000
			CHANNELS 3 Zrotation Xrotation Yrotation
			JOINT Spine2
			{
				OFFSET	 0.000000	 0.156879	 0.000000
				CHANNELS 3 Zrotation Xrotation Yrotation
				JOINT LeftShoulder
				{
					OFFSET	 0.080501	 0.160143	 0.002496
					CHANNELS 3 Zrotation Xrotation Yrotation
					JOINT LeftArm
					{
						OFFSET	 0.000000	 0.164363	 0.000000
						CHANNELS 3 Zrotation Xrotation Yrotation
						JOINT LeftForeArm
						{
							OFFSET	 0.000000	 0.364576	 0.000000
							CHANNELS 3 Zrotation Xrotation Yrotation
							JOINT LeftHand
							{
								OFFSET	 0.000000	 0.360812	 0.000000
								CHANNELS 3 Zrotation Xrotation Yrotation
								JOINT LeftHandIndex1
								{
									OFFSET	 0.000000	 0.086006	 0.000000
									CHANNELS 3 Zrotation Xrotation Yrotation
									JOINT LeftHandIndex2
									{
										OFFSET	 0.000000	 0.047237	 0.000000
										CHANNELS 3 Zrotation Xrotation Yrotation
										JOINT LeftHandIndex3
										{
											OFFSET	-0.004284	 0.038165	 0.000551
											CHANNELS 3 Zrotation Xrotation Yrotation
											End Site
											{
												OFFSET	-0.004284	 0.038165	 0.000551
											}
										}
									}
								}
							}
						}
					}
				}
				JOINT Neck
				{
					OFFSET	 0.000000	 0.176489	 0.000000
					CHANNELS 3 Zrotation Xrotation Yrotation
					JOINT Head
					{
						OFFSET	 0.000000	 0.077941	 0.001747
						CHANNELS 3 Zrotation Xrotation Yrotation
						End Site
						{
							OFFSET	 0.000000	 0.077941	 0.001747
						}
					}
				}
				JOINT RightShoulder
				{
					OFFSET	-0.080363	 0.159706	-0.000306
					CHANNELS 3 Zrotation Xrotation Yrotation
					JOINT RightArm
					{
						OFFSET	 0.000000	 0.164196	 0.000000
						CHANNELS 3 Zrotation Xrotation Yrotation
						JOINT RightForeArm
						{
							OFFSET	 0.000000	 0.365611	 0.000000
							CHANNELS 3 Zrotation Xrotation Yrotation
							JOINT RightHand
							{
								OFFSET	 0.000000	 0.360648	 0.000000
								CHANNELS 3 Zrotation Xrotation Yrotation
								JOINT RightHandIndex1
								{
									OFFSET	 0.000000	 0.069977	 0.000000
									CHANNELS 3 Zrotation Xrotation Yrotation
									JOINT RightHandIndex2
									{
										OFFSET	 0.000000	 0.052305	 0.000000
										CHANNELS 3 Zrotation Xrotation Yrotation
										JOINT RightHandIndex3
										{
											OFFSET	 0.009002	 0.042196	 0.000782
											CHANNELS 3 Zrotation Xrotation Yrotation
											End Site
											{
												OFFSET	 0.009002	 0.042196	 0.000782
											}
										}
									}
								}
							}
						}
					}
				}
			}
		}
	}
}
MOTION
Frames:    8
Frame Time: 0.03333334
-0.044917	 1.233580	-1.251169	-3.846782	 1.503408	-174.098300	 174.468100	 7.766654	-16.109410	 4.332830	-29.654950	 6.100566	 7.598844	 80.689410	-0.173125	 1.513085	 31.250250	-2.812037	 167.056500	 27.132460	 20.390020	-5.894398	-53.772270	 6.238615	 4.482228	 70.630990	-3.621470	-1.668879	 33.141460	 2.886359	-1.427782	 8.656004	 3.977598	-2.694173	 4.214735	 2.870136	 3.012426	-4.613424	-11.222230	-121.358600	 7.433486	 94.040440	 45.899970	 11.766150	-13.037210	 4.370786	-0.224612	-0.146004	 6.457482	 15.869740	 9.551235	 4.625462	 18.860750	-1.655652	-5.863941	 21.474540	 2.374078	 5.331686	 4.343732	-0.168971	-0.168553	-5.010432	-0.143862	-2.095812	-2.295089	-5.765414	 118.422500	-0.019147	-90.823620	-2.582379	 47.442230	-3.132940	-5.014210	-0.196015	 0.120671	-0.675624	-5.545374	 12.309570	-2.433487	 25.957830	 1.333865	 15.846240	 44.947540	-11.830360	-8.529147	 23.955700	-1.225357
-0.045710	 1.231122	-1.269018	-3.862254	 1.443517	-174.043500	 174.746900	 7.803408	-17.034970	 4.479398	-30.346680	 6.261993	 8.520628	 81.409430	-1.151726	 1.516879	 31.297440	-2.813823	 166.422700	 26.842200	 21.608590	-6.066995	-54.474870	 6.140610	 5.537881	 72.431880	-4.322521	-1.670534	 33.161260	 2.887187	-1.356003	 8.630073	 3.464294	-2.707025	 4.207296	 2.867441	 3.015048	-4.615848	-11.235730	-121.357300	 7.480726	 94.063900	 45.531980	 11.566870	-12.813600	 4.484832	-0.224297	-0.481785	 7.400454	 15.632430	 8.541709	 4.631562	 18.880760	-1.658905	-5.863886	 21.492120	 2.376018	 5.332441	 4.361419	-0.168650	-0.169418	-5.014448	-0.139888	-2.080781	-2.315246	-5.767285	 118.415900	-0.047004	-90.810530	-2.371547	 47.223990	-3.197573	-5.138335	-0.196141	 0.456528	-0.536466	-5.375564	 12.746960	-2.411314	 25.793280	 1.321971	 15.804480	 44.787000	-11.766150	-8.529783	 23.790520	-1.214342
-0.046394	 1.228808	-1.285928	-3.880322	 1.374287	-173.979700	 174.998800	 7.772985	-17.754300	 4.555567	-30.931320	 6.321747	 9.544436	 82.067830	-2.248438	 1.521283	 31.352160	-2.815899	 165.802500	 26.714150	 22.758420	-6.230590	-55.091850	 6.055873	 6.792881	 74.148570	-5.237056	-1.672455	 33.184210	 2.888149	-1.273598	 8.599312	 2.867448	-2.719969	 4.204461	 2.862647	 3.017169	-4.621326	-11.251360	-121.355900	 7.535497	 94.091090	 45.109760	 11.351350	-12.566020	 4.618286	-0.223857	-0.871131	 8.485312	 15.330940	 7.378863	 4.638638	 18.903970	-1.662681	-5.863825	 21.512510	 2.378269	 5.333318	 4.381926	-0.168277	-0.170420	-5.019106	-0.135281	-2.063352	-2.338613	-5.769455	 118.408300	-0.079321	-90.795360	-2.104411	 47.015160	-3.293373	-5.282344	-0.196250	 0.845836	-0.393833	-5.224912	 13.248970	-2.385689	 25.602460	 1.308287	 15.756510	 44.600810	-11.692130	-8.530476	 23.598970	-1.201589
-0.047268	 1.225500	-1.310313	-3.910577	 1.259040	-173.873800	 175.337700	 7.603255	-18.742640	 4.679975	-31.614780	 6.490241	 11.288280	 82.968040	-4.132424	 1.528631	 31.443340	-2.819372	 164.879300	 26.795110	 24.397410	-6.471375	-55.922560	 5.939954	 9.090747	 76.553960	-7.066074	-1.675657	 33.222450	 2.889753	-1.138554	 8.546686	 1.870858	-2.736760	 4.211061	 2.852022	 3.018268	-4.635366	-11.277490	-121.353600	 7.626740	 94.136410	 44.384020	 10.996900	-12.156480	 4.836410	-0.223042	-1.519503	 10.310870	 14.801630	 5.435048	 4.650433	 18.942630	-1.668978	-5.863723	 21.546480	 2.382019	 5.334776	 4.416091	-0.167657	-0.172088	-5.026865	-0.127605	-2.034315	-2.377538	-5.773097	 118.395700	-0.133128	-90.770130	-1.602009	 46.707050	-3.500862	-5.524887	-0.196538	 1.494340	-0.203494	-5.018220	 14.077630	-2.343194	 25.284510	 1.285745	 15.677680	 44.290460	-11.569800	-8.531526	 23.279810	-1.180386
-0.047907	 1.222733	-1.330899	-3.938682	 1.151996	-173.776000	 175.600300	 7.342060	-19.475950	 4.759097	-32.044210	 6.628325	 13.025190	 83.679200	-6.020327	 1.535450	 31.527810	-2.822605	 164.077000	 27.099390	 25.669860	-6.545926	-56.591350	 6.005347	 11.565620	 78.462220	-9.186212	-1.678625	 33.257870	 2.891242	-1.015805	 8.495893	 0.945237	-2.747776	 4.228647	 2.839027	 3.017036	-4.653661	-11.301750	-121.351600	 7.711290	 94.178420	 43.672970	 10.662720	-11.771720	 5.037392	-0.222234	-2.120230	 12.029790	 14.293000	 3.619027	 4.661366	 18.978450	-1.674821	-5.863631	 21.577940	 2.385493	 5.336128	 4.447744	-0.167084	-0.173633	-5.034055	-0.120494	-2.007412	-2.413608	-5.776442	 118.384000	-0.183005	-90.746730	-1.077645	 46.437820	-3.739645	-5.752181	-0.196891	 2.094856	-0.077878	-4.847544	 14.836350	-2.304042	 24.989890	 1.265143	 15.605830	 44.002800	-11.457560	-8.532380	 22.984090	-1.160792
-0.051692	 1.185660	-1.610098	-4.351614	-0.508930	-172.264300	 177.952400	-1.698380	-24.421380	 4.583368	-31.084960	 8.042699	 131.378900	 87.442120	-128.645800	 1.642710	 32.837130	-2.874634	 152.913300	 39.136360	 42.087940	-7.144573	-58.843760	 7.576061	 147.452100	 83.066780	-144.408200	-1.724942	 33.807000	 2.914689	 0.587242	 7.532371	-13.233040	-2.612657	 5.014343	 2.393818	 2.853709	-5.163661	-11.682810	-121.327400	 9.022065	 94.830170	 31.674680	 5.272265	-6.767150	 8.070520	-0.206186	-11.362440	 37.625370	 4.090118	-24.262190	 4.831652	 19.533540	-1.766490	-5.862467	 22.065760	 2.439448	 5.357038	 4.938402	-0.158286	-0.197469	-5.145518	-0.010281	-1.590194	-2.973051	-5.826459	 118.205200	-0.956667	-90.385540	 9.529634	 41.759470	-9.186399	-9.235302	-0.201723	 11.335550	-1.301610	-1.765271	 25.514380	-1.721587	 20.419130	 0.978534	 14.624550	 39.529790	-9.838234	-8.531804	 18.397760	-0.862150
-0.051859	 1.180956	-1.643301	-4.400180	-0.738958	-172.056300	 178.135000	-3.126717	-24.723910	 4.442458	-30.301250	 8.180790	 137.886300	 86.958500	-135.844500	 1.657744	 33.017770	-2.882102	 151.774300	 40.321680	 43.810090	-7.002599	-58.334790	 8.152866	 152.526100	 80.977290	-149.395300	-1.731377	 33.882750	 2.917977	 0.762775	 7.375805	-15.092300	-2.596733	 5.056604	 2.320523	 2.834351	-5.203329	-11.735460	-121.325200	 9.202915	 94.920200	 30.454640	 4.684800	-6.442310	 8.498948	-0.204821	-12.619700	 40.377170	 2.470881	-27.663420	 4.855267	 19.610100	-1.779300	-5.862345	 22.133060	 2.446906	 5.359919	 5.006100	-0.157085	-0.200741	-5.160901	 0.004924	-1.532599	-3.050280	-5.833110	 118.180900	-1.063507	-90.335880	 10.664070	 41.151820	-9.685537	-9.697566	-0.201868	 12.592450	-1.348179	-1.255355	 26.802760	-1.644523	 19.788440	 0.943551	 14.506910	 38.911260	-9.630776	-8.529756	 17.765110	-0.821584
-0.052024	 1.175466	-1.680244	-4.455404	-1.020196	-171.803000	 178.333300	-4.690283	-25.058550	 4.274535	-29.350590	 8.354852	 141.478300	 86.445700	-140.235900	 1.676203	 33.238610	-2.891330	 150.547200	 41.373830	 45.673440	-6.909045	-57.991130	 8.902824	 156.516700	 77.717000	-152.931400	-1.739259	 33.975370	 2.922016	 0.961574	 7.177724	-17.307840	-2.595934	 5.035977	 2.236147	 2.820435	-5.218304	-11.799530	-121.323000	 9.424025	 95.030360	 29.247670	 4.058064	-6.197927	 9.031007	-0.203611	-14.148040	 43.370010	 0.538530	-31.586570	 4.884175	 19.703700	-1.795014	-5.862207	 22.215340	 2.456028	 5.363438	 5.088861	-0.155622	-0.204736	-5.179707	 0.023511	-1.462181	-3.144717	-5.841092	 118.151300	-1.194144	-90.275240	 11.730670	 40.524350	-10.078510	-10.256690	-0.201929	 14.120570	-1.141848	-0.642804	 28.303190	-1.551295	 19.017550	 0.902197	 14.368370	 38.154850	-9.381827	-8.526627	 16.991900	-0.772163
